<svg xmlns="http://www.w3.org/2000/svg" viewBox="0 0 256 148">
  <g fill="none" stroke="#FFFFFF">
    <path stroke-opacity=".15" d="M127.997438,0.577349822 L254.994883,73.8991317 L127.997438,147.22265 L0.999993442,73.8991317 L127.997438,0.577349822 Z"/>
    <path stroke-opacity=".15" d="M0.5,37 L255.5,37 L255.5,110 L0.5,110 L0.5,37 Z"/>
    <path stroke-opacity=".15" d="M0.5,73.5 L-2.84217094e-14,74 L256,74 L255.5,73.5 L255.5,74.5 L256,74 L-1.42108547e-14,74 L0.5,74.5 L0.5,73.5 Z"/>
    <path stroke-opacity=".15" d="M43.2550988,122.774279 L43.2540213,122.7783 L43.2529438,122.782322 L43.6859565,122.532322 L212.904223,24.8341098 L213.332137,24.5870536 L213.333215,24.5830323 L213.329193,24.5819548 L212.654223,24.4010971 L212.901279,24.829011 L212.904223,24.8341098 L213.151279,25.2620237 L213.332137,24.5870536 L213.333215,24.5830323 L213.334292,24.579011 L212.901279,24.829011 L43.6830127,122.527223 L43.2550988,122.774279 L43.2540213,122.7783 L43.2580426,122.779378 L43.9330127,122.960236 L43.6859565,122.532322 L43.6830127,122.527223 L43.4359565,122.099309 L43.2550988,122.774279 Z"/>
    <path stroke-opacity=".15" d="M213.329193,122.784477 L213.333215,122.783399 L213.337236,122.782322 L212.904223,122.532322 L43.6859565,24.8341098 L43.2580426,24.5870536 L43.2540213,24.5881311 L43.2550988,24.5921524 L43.4359565,25.2671225 L43.6830127,24.8392086 L43.6859565,24.8341098 L43.9330127,24.4061959 L43.2580426,24.5870536 L43.2540213,24.5881311 L43.25,24.5892086 L43.6830127,24.8392086 L212.901279,122.53742 L213.329193,122.784477 L213.333215,122.783399 L213.332137,122.779378 L213.151279,122.104408 L212.904223,122.532322 L212.901279,122.53742 L212.654223,122.965334 L213.329193,122.784477 Z"/>
    <path stroke-opacity=".15" d="M127.349998 147.25L127.849998 147.75 127.849998.25 127.349998.75 128.349998.75 127.849998.25 127.849998 147.75 128.349998 147.25 127.349998 147.25zM64.375 128.875L64.4375 128.9375 64.5 129 64.5 128.875 64.5 128.5 64.5 19.0625 64.5 18.6875 64.5 18.5625 64.4375 18.625 64.375 18.6875 64 19.0625 64.375 19.0625 64.5 19.0625 64.875 19.0625 64.5 18.6875 64.4375 18.625 64.375 18.5625 64.375 18.6875 64.375 19.0625 64.375 128.5 64.375 128.875 64.375 129 64.4375 128.9375 64.5 128.875 64.875 128.5 64.5 128.5 64.375 128.5 64 128.5 64.375 128.875zM191.375 128.875L191.4375 128.9375 191.5 129 191.5 128.875 191.5 128.5 191.5 19.0625 191.5 18.6875 191.5 18.5625 191.4375 18.625 191.375 18.6875 191 19.0625 191.375 19.0625 191.5 19.0625 191.875 19.0625 191.5 18.6875 191.4375 18.625 191.375 18.5625 191.375 18.6875 191.375 19.0625 191.375 128.5 191.375 128.875 191.375 129 191.4375 128.9375 191.5 128.875 191.875 128.5 191.5 128.5 191.375 128.5 191 128.5 191.375 128.875z"/>
    <path stroke-opacity=".24" d="M128,0.519931266 L255.5,36.8773531 L255.5,73.9006057 L255.5,110.124915 L128,147.282161 L0.5,110.124915 L0.5,73.9006057 L0.5,36.8773531 L128,0.519931266 Z"/>
  </g>
</svg>
